<?xml version="1.0" standalone="no"?>
<!DOCTYPE svg PUBLIC "-//W3C//DTD SVG 20010904//EN"
 "http://www.w3.org/TR/2001/REC-SVG-20010904/DTD/svg10.dtd">
<svg version="1.0" xmlns="http://www.w3.org/2000/svg"
 width="3936.000000pt" height="5936.000000pt" viewBox="0 0 3936.000000 5936.000000"
 preserveAspectRatio="xMidYMid meet">

<g transform="translate(0.000000,5936.000000) scale(0.100000,-0.100000)"
fill="#3f2817" stroke="#3f2817">
<path d="M19205 31274 c-247 -6 -711 -25 -960 -40 -4360 -257 -8480 -1711
-11680 -4123 -842 -635 -1638 -1356 -2425 -2196 -41 -45 -104 -112 -140 -150
-56 -60 -140 -153 -284 -315 -56 -62 -177 -206 -296 -350 -34 -41 -78 -95 -98
-120 -20 -24 -79 -98 -130 -165 -52 -66 -101 -129 -110 -140 -144 -173 -559
-768 -759 -1088 -38 -60 -76 -120 -85 -135 -20 -31 -27 -43 -87 -143 -123
-205 -141 -236 -294 -514 -87 -160 -323 -627 -390 -775 -13 -30 -38 -84 -54
-120 -110 -242 -246 -570 -329 -795 -83 -228 -97 -265 -130 -365 -19 -58 -39
-114 -44 -125 -5 -11 -21 -60 -35 -110 -15 -49 -33 -111 -41 -137 -35 -118
-44 -150 -74 -253 -58 -201 -149 -561 -190 -750 -5 -22 -18 -78 -29 -125 -12
-47 -28 -130 -36 -185 -8 -55 -19 -122 -25 -150 -15 -78 -38 -220 -55 -335 -8
-58 -20 -132 -25 -165 -5 -33 -12 -87 -15 -120 -3 -33 -10 -89 -15 -125 -14
-97 -37 -347 -57 -595 -25 -321 -25 -1333 0 -1660 28 -352 65 -694 102 -940 8
-55 19 -131 25 -170 6 -38 20 -122 31 -185 11 -63 25 -142 30 -175 8 -50 44
-225 79 -390 14 -63 149 -596 160 -630 28 -85 143 -475 150 -510 5 -22 15 -56
23 -75 8 -19 51 -136 95 -260 68 -190 230 -608 262 -675 5 -11 19 -45 30 -75
22 -57 25 -65 85 -195 20 -44 44 -96 53 -115 33 -76 343 -700 385 -775 268
-488 402 -711 676 -1125 321 -484 653 -926 1045 -1390 211 -250 302 -352 536
-604 225 -243 799 -804 1040 -1017 52 -46 97 -86 100 -89 21 -21 357 -310 530
-456 2450 -2061 5479 -3518 8855 -4259 2210 -485 4544 -649 6845 -479 3405
250 6653 1224 9430 2829 1800 1040 3345 2308 4624 3796 499 580 992 1232 1358
1797 63 98 344 555 378 617 13 22 45 80 73 130 27 49 55 98 62 110 15 25 78
142 163 305 36 69 71 132 77 140 7 8 16 25 20 38 4 13 49 111 101 218 52 107
94 196 94 199 0 3 25 59 90 200 10 22 32 74 50 115 17 41 35 84 40 95 5 11 19
45 31 75 12 30 27 69 34 85 7 17 21 53 30 80 10 28 21 55 25 60 4 6 15 33 24
60 10 28 24 64 31 80 7 17 22 57 33 90 31 91 120 342 147 415 20 52 108 346
146 485 4 17 21 80 38 140 122 441 265 1100 291 1349 6 56 13 108 15 116 11
36 47 326 70 565 8 83 17 168 20 190 3 22 10 123 16 225 5 102 13 203 16 225
8 59 8 1079 0 1160 -4 39 -11 149 -17 245 -5 96 -14 218 -20 270 -6 52 -15
140 -20 195 -13 129 -26 244 -45 375 -8 58 -23 170 -34 250 -11 80 -25 168
-31 195 -6 28 -14 75 -19 105 -10 61 -63 318 -86 420 -8 36 -20 90 -26 120 -5
30 -15 69 -20 85 -5 17 -20 77 -34 135 -22 94 -47 191 -90 345 -15 57 -79 272
-123 420 -32 105 -123 375 -147 435 -7 19 -50 134 -96 255 -45 121 -89 238
-99 260 -9 22 -23 56 -30 75 -12 32 -99 233 -140 325 -10 22 -29 65 -43 95
-58 131 -95 208 -203 425 -134 271 -277 542 -330 626 -13 21 -24 41 -24 43 0
2 -30 55 -66 118 -321 550 -762 1212 -1152 1728 -458 605 -889 1098 -1456
1666 -351 350 -613 594 -949 882 -2433 2086 -5508 3580 -8912 4331 -1358 300
-2677 468 -4165 531 -238 10 -1157 19 -1395 14z m1510 -1753 c1614 -87 2962
-286 4380 -646 558 -142 1444 -404 1483 -440 13 -12 24 -86 43 -290 13 -141 6
-643 -10 -755 -27 -179 -34 -221 -57 -330 -45 -218 -64 -286 -131 -488 -32
-98 -43 -128 -64 -177 -5 -11 -18 -44 -29 -73 -84 -220 -272 -564 -448 -822
-467 -682 -1148 -1295 -1957 -1760 -169 -97 -167 -96 -365 -195 -241 -122
-448 -214 -645 -290 -38 -14 -79 -30 -90 -35 -57 -23 -111 -42 -220 -80 -185
-63 -193 -66 -300 -98 -124 -37 -179 -52 -365 -102 -73 -20 -259 -63 -366 -85
-61 -12 -117 -26 -124 -30 -10 -6 -12 -172 -7 -864 4 -471 10 -869 15 -886 4
-16 6 -316 3 -665 -5 -689 -4 -1691 2 -4177 2 -880 1 -1606 -2 -1612 -5 -7
-560 -11 -1801 -12 l-1795 -1 -3 29 c-2 15 -7 33 -12 38 -8 9 -11 646 -25
4985 -6 1798 -15 3192 -22 3203 -2 4 -17 7 -33 7 -16 0 -39 4 -52 9 -13 5 -68
19 -123 31 -55 12 -113 26 -130 31 -16 4 -55 15 -85 23 -350 96 -847 267
-1057 362 -28 13 -54 24 -57 24 -18 0 -504 238 -663 324 -184 101 -503 303
-694 441 -107 77 -254 188 -290 219 -19 17 -57 49 -84 71 -97 79 -252 221
-380 349 -156 157 -207 213 -374 411 -44 53 -227 300 -278 375 -204 306 -400
696 -506 1010 -120 355 -182 663 -208 1030 -15 209 -5 569 21 735 5 33 12 79
16 102 l6 43 186 59 c1867 598 3787 929 5847 1011 286 11 1592 5 1850 -9z
m-9655 -1778 c1 -16 3 -62 5 -103 2 -41 7 -122 10 -180 8 -150 44 -459 71
-600 151 -811 446 -1536 912 -2250 110 -168 365 -504 491 -650 12 -14 32 -36
43 -50 106 -126 412 -441 543 -560 34 -30 83 -75 110 -100 486 -444 1146 -890
1810 -1225 226 -114 273 -136 420 -200 33 -15 74 -33 90 -40 17 -8 53 -23 80
-35 28 -12 59 -25 70 -30 96 -44 422 -166 645 -240 52 -17 104 -35 115 -40 11
-5 34 -13 50 -18 l30 -9 3 -709 c1 -390 0 -714 -2 -720 -3 -9 -20 -8 -63 1
-32 7 -96 20 -143 30 -90 19 -614 149 -665 165 -16 5 -55 16 -85 24 -352 97
-1166 372 -1345 456 -11 5 -103 43 -205 86 -166 68 -285 120 -465 204 -312
144 -783 393 -1090 577 -369 221 -622 391 -969 649 -245 182 -315 238 -591
474 -414 353 -938 898 -1220 1270 -27 36 -52 67 -55 70 -10 7 -165 219 -232
315 -293 424 -461 723 -666 1185 -10 25 -45 110 -76 190 -31 80 -61 154 -66
165 -35 76 -131 390 -127 413 3 15 -1 38 -8 52 -34 68 -47 55 222 222 552 345
1017 603 1613 897 327 161 707 339 728 340 7 1 12 -11 12 -26z m17497 -84
c724 -333 1416 -704 2061 -1107 121 -76 202 -132 202 -141 0 -45 -204 -609
-270 -746 -5 -11 -39 -85 -75 -165 -81 -179 -196 -399 -321 -617 -114 -198
-200 -334 -379 -593 -116 -169 -403 -535 -540 -690 -362 -407 -764 -798 -1130
-1099 -178 -146 -303 -243 -480 -373 -192 -141 -406 -288 -575 -397 -136 -87
-438 -271 -445 -271 -3 0 -24 -12 -48 -27 -194 -122 -843 -450 -1192 -602 -27
-12 -59 -26 -70 -31 -74 -33 -115 -50 -119 -50 -3 0 -29 -11 -58 -24 -78 -35
-334 -135 -523 -204 -236 -86 -435 -153 -625 -211 -58 -18 -116 -36 -130 -41
-69 -24 -384 -110 -580 -159 -69 -18 -141 -36 -160 -41 -83 -22 -303 -70 -321
-70 -19 0 -19 17 -19 693 l0 692 123 38 c67 21 131 42 142 47 11 5 70 25 130
45 352 118 756 286 1121 468 403 200 773 418 1139 672 136 94 516 383 545 415
3 3 34 30 70 60 153 129 261 230 450 420 200 199 262 266 365 390 44 52 82 97
85 100 33 28 291 374 397 532 103 152 279 439 315 513 14 28 57 113 95 190
261 519 432 1038 537 1625 30 170 40 309 39 583 l-1 279 23 -6 c13 -3 113 -47
222 -97z m-21614 -2556 c9 -21 20 -49 25 -63 6 -14 24 -55 41 -92 17 -37 42
-96 57 -130 31 -76 236 -490 297 -603 24 -44 67 -120 94 -170 28 -49 63 -112
78 -140 58 -103 281 -465 368 -595 291 -437 616 -853 976 -1252 141 -156 655
-666 806 -799 165 -146 436 -376 540 -458 44 -34 89 -71 101 -80 86 -73 466
-348 719 -521 91 -63 317 -210 322 -210 2 0 30 -17 61 -38 132 -88 531 -323
651 -383 l35 -17 -30 -6 c-46 -9 -277 -42 -534 -75 -1696 -219 -4163 -378
-6830 -441 -239 -5 -511 -12 -605 -15 -402 -12 -1575 -18 -1575 -8 0 21 145
437 222 637 191 498 378 905 626 1366 100 185 215 383 240 413 18 20 33 47 61
105 11 23 40 73 64 110 24 37 87 132 139 212 52 80 106 157 119 172 13 14 35
48 49 74 21 42 431 610 450 624 4 3 65 77 136 166 214 266 586 692 625 717 10
6 19 16 19 20 0 12 152 180 240 264 137 132 266 273 298 325 13 20 32 40 42
43 11 4 26 12 32 18 7 7 35 30 62 52 27 22 75 65 105 95 53 52 162 147 278
242 28 24 139 118 246 211 184 158 315 265 328 266 3 1 13 -16 22 -36z m25597
-111 c90 -73 263 -219 340 -288 298 -265 500 -455 732 -687 214 -214 568 -592
651 -695 18 -22 76 -90 131 -152 293 -337 833 -1054 851 -1132 4 -15 13 -28
20 -30 20 -4 385 -558 385 -584 0 -2 11 -21 24 -42 190 -301 435 -774 681
-1317 17 -38 46 -108 65 -155 37 -96 33 -86 93 -235 25 -60 50 -126 57 -145 7
-19 19 -48 25 -65 40 -97 155 -435 155 -455 0 -11 -114 -12 -617 -6 -340 3
-701 9 -803 11 -102 3 -378 10 -615 15 -2696 63 -5257 230 -6902 450 -306 41
-484 68 -490 73 -5 5 34 30 117 75 181 97 514 299 770 467 74 49 158 102 185
118 28 16 57 36 65 44 8 7 60 46 115 85 279 199 636 470 729 553 6 6 34 28 61
50 28 22 52 42 55 45 3 3 55 48 115 100 61 52 112 97 115 100 3 3 50 45 105
95 654 587 1262 1287 1741 2005 88 132 303 479 356 575 151 272 310 583 380
740 14 33 38 87 53 120 15 33 47 108 71 167 53 132 74 178 83 178 3 0 49 -35
101 -78z m-19098 -6082 c29 -11 62 -25 73 -30 43 -19 95 -40 210 -85 66 -26
143 -56 170 -67 28 -12 61 -24 75 -29 14 -4 63 -22 110 -39 47 -18 103 -38
125 -45 22 -8 99 -34 170 -60 131 -47 342 -116 425 -140 25 -7 97 -29 160 -48
63 -19 124 -37 135 -40 11 -3 74 -21 140 -40 66 -20 156 -44 200 -55 44 -11
141 -36 215 -55 74 -19 167 -41 205 -50 39 -9 111 -25 160 -37 50 -11 108 -25
130 -30 22 -5 110 -23 195 -40 85 -17 170 -36 188 -41 l32 -11 0 -1673 c0
-1507 -2 -1673 -16 -1679 -8 -3 -3264 -6 -7234 -6 l-7220 0 -5 22 c-7 33 -33
338 -45 523 -55 904 26 1912 230 2844 16 74 31 135 32 136 2 1 332 5 733 9
676 6 1358 17 1805 31 102 3 345 10 540 15 3206 92 6027 328 7530 630 189 38
459 100 477 109 1 1 26 -8 55 -19z m12716 -9 c1295 -327 4353 -606 7727 -706
105 -3 253 -7 330 -10 77 -3 347 -10 600 -15 253 -5 543 -12 645 -15 102 -3
487 -8 855 -11 369 -4 673 -9 677 -13 4 -4 12 -27 17 -51 5 -25 25 -121 45
-215 36 -175 80 -420 96 -535 5 -36 16 -117 25 -180 25 -179 46 -366 52 -472
5 -78 3 -98 -8 -102 -8 -2 -135 -9 -284 -15 -261 -11 -490 -24 -625 -36 -36
-3 -123 -10 -195 -15 -71 -6 -148 -13 -170 -15 -22 -3 -92 -9 -155 -15 -275
-24 -692 -72 -1000 -114 -182 -25 -193 -27 -285 -41 -49 -8 -133 -21 -185 -29
-99 -16 -284 -47 -430 -72 -47 -8 -110 -19 -140 -24 -30 -5 -100 -18 -155 -29
-55 -11 -125 -24 -155 -30 -30 -6 -120 -24 -200 -41 -80 -17 -165 -35 -190
-40 -25 -5 -74 -16 -110 -24 -36 -8 -90 -19 -120 -25 -63 -13 -83 -18 -280
-65 -157 -38 -329 -81 -510 -127 -120 -31 -125 -33 -255 -69 -44 -12 -93 -26
-110 -30 -37 -10 -232 -66 -300 -86 -122 -36 -145 -43 -225 -69 -47 -15 -105
-33 -130 -40 -152 -45 -552 -177 -755 -250 -71 -26 -166 -59 -210 -75 -116
-40 -635 -239 -730 -279 -11 -5 -72 -30 -135 -56 -178 -73 -193 -79 -283 -119
-31 -14 -84 -37 -117 -51 -33 -14 -86 -37 -117 -53 l-58 -27 -2922 -3 -2923
-2 0 1673 0 1674 168 32 c92 18 192 39 222 46 30 7 91 20 135 30 192 40 660
155 840 206 142 40 403 117 435 129 14 4 72 23 130 40 58 17 150 47 205 65
216 73 311 106 345 120 19 7 98 37 175 65 77 29 194 73 260 99 137 54 120 48
245 100 52 22 101 40 108 40 7 1 66 -12 130 -28z m9250 -4204 c-7 -7 -51 -42
-97 -77 -46 -36 -109 -85 -141 -110 -32 -25 -93 -73 -136 -107 -44 -34 -117
-91 -164 -128 -47 -36 -98 -76 -115 -89 -37 -30 -209 -165 -368 -289 -65 -51
-155 -121 -201 -157 -45 -36 -141 -110 -211 -165 -71 -55 -160 -125 -199 -156
-39 -30 -145 -113 -236 -184 -91 -71 -194 -152 -230 -180 -65 -52 -201 -158
-625 -488 -126 -98 -239 -186 -250 -196 -11 -9 -58 -46 -104 -81 -46 -36 -112
-87 -147 -115 -35 -27 -107 -84 -161 -125 -54 -41 -107 -83 -118 -92 -17 -14
-87 -70 -360 -282 -16 -13 -66 -52 -111 -87 -44 -35 -118 -93 -164 -129 -46
-36 -120 -93 -164 -128 -45 -35 -117 -91 -161 -126 -44 -34 -163 -128 -265
-207 -102 -80 -245 -192 -319 -250 -74 -57 -240 -187 -370 -288 -130 -102
-274 -214 -321 -250 -47 -36 -87 -68 -90 -71 -3 -3 -43 -35 -89 -71 -46 -35
-112 -86 -147 -114 -34 -27 -116 -91 -181 -142 -65 -50 -188 -146 -273 -213
-85 -67 -191 -149 -235 -183 -44 -33 -82 -64 -85 -67 -3 -4 -43 -35 -88 -71
-98 -75 -132 -101 -398 -310 -110 -85 -264 -206 -344 -268 -80 -62 -154 -120
-165 -130 -11 -9 -128 -100 -260 -203 -132 -103 -341 -266 -465 -363 -124 -97
-261 -204 -304 -238 -44 -34 -116 -90 -160 -125 -45 -35 -119 -93 -166 -129
-47 -37 -115 -90 -152 -120 -178 -140 -207 -163 -268 -209 -35 -27 -73 -57
-85 -66 -11 -9 -69 -55 -130 -102 -60 -47 -141 -111 -180 -141 -38 -30 -135
-105 -215 -168 -80 -62 -230 -180 -335 -262 -104 -82 -210 -164 -235 -183 -25
-19 -61 -47 -80 -62 -19 -15 -123 -97 -230 -180 -107 -84 -215 -169 -240 -189
-40 -33 -399 -313 -609 -476 -94 -73 -559 -436 -766 -599 -195 -153 -290 -227
-385 -301 -43 -33 -165 -128 -272 -212 -218 -171 -739 -578 -992 -776 -359
-281 -376 -293 -376 -272 0 10 60 309 70 350 5 22 16 69 24 105 57 245 75 317
153 590 33 118 138 447 191 600 79 228 289 753 314 786 4 6 23 49 42 95 42
104 102 232 216 459 112 223 123 244 136 252 6 4 19 26 28 50 25 60 23 57 125
241 48 86 170 289 184 306 8 9 47 72 87 141 77 129 276 430 355 534 25 33 45
63 45 67 0 6 163 231 280 387 32 42 62 72 72 72 10 0 17 5 16 11 -2 6 3 14 10
16 6 3 12 0 12 -6 0 -6 5 -11 11 -11 8 0 8 4 0 13 -25 30 47 131 338 472 80
94 159 186 177 205 17 19 57 64 89 100 356 398 919 948 1310 1281 22 19 47 40
55 48 139 133 884 716 1145 896 39 27 93 65 120 85 67 49 484 329 610 409 296
189 643 396 930 556 179 99 209 115 218 115 6 0 18 6 26 14 30 25 604 320 836
428 55 26 148 70 208 97 59 28 109 51 112 51 2 0 41 17 87 38 92 43 263 117
348 152 30 13 78 33 105 45 57 25 437 176 655 260 276 106 982 347 1200 410
25 7 97 29 160 48 63 19 124 37 135 40 11 3 70 20 130 37 248 71 523 144 675
179 19 5 82 20 140 34 88 22 298 72 390 94 99 23 695 142 840 167 101 19 203
36 340 60 47 8 135 22 195 31 61 8 135 20 165 25 121 22 540 76 603 78 32 2
36 0 25 -11z m1687 -889 c-2 -7 -11 -53 -20 -103 -20 -112 -28 -148 -65 -310
-63 -270 -91 -379 -145 -565 -13 -47 -34 -119 -46 -160 -33 -114 -67 -224
-109 -345 -21 -60 -48 -137 -59 -170 -49 -144 -134 -367 -186 -490 -8 -16 -43
-102 -80 -190 -88 -209 -84 -201 -256 -550 -168 -341 -220 -439 -374 -705
-153 -265 -497 -808 -567 -895 -4 -5 -51 -71 -105 -145 -169 -238 -425 -570
-587 -764 -69 -82 -170 -201 -176 -206 -3 -3 -55 -61 -115 -130 -289 -331
-757 -806 -1100 -1116 -699 -632 -1417 -1181 -2211 -1691 -132 -85 -721 -443
-728 -443 -2 0 -57 -31 -122 -68 -137 -79 -314 -176 -464 -256 -117 -63 -654
-330 -740 -369 -30 -14 -107 -50 -170 -80 -63 -30 -143 -67 -178 -81 -34 -15
-92 -40 -127 -56 -112 -51 -453 -195 -630 -265 -93 -37 -183 -73 -200 -80 -16
-7 -100 -38 -185 -70 -85 -31 -163 -61 -172 -66 -10 -5 -23 -9 -29 -9 -6 0
-25 -6 -42 -14 -76 -34 -637 -222 -922 -310 -82 -26 -166 -51 -185 -58 -19 -6
-48 -15 -65 -19 -16 -4 -55 -15 -85 -24 -30 -9 -77 -22 -105 -30 -27 -7 -99
-27 -160 -45 -167 -48 -586 -155 -840 -215 -170 -40 -239 -56 -330 -74 -55
-11 -131 -28 -170 -36 -38 -9 -90 -20 -115 -25 -25 -4 -83 -16 -130 -25 -225
-44 -248 -48 -575 -105 -99 -17 -209 -35 -245 -40 -328 -50 -446 -67 -560 -80
-47 -6 -112 -15 -145 -20 -76 -12 -118 -13 -113 -1 3 10 529 425 653 517 22
16 45 34 50 40 6 6 46 38 90 72 44 33 152 117 240 186 88 70 201 158 250 196
50 38 162 126 250 196 88 69 203 159 255 199 103 80 147 114 435 340 205 161
276 216 364 284 106 82 556 434 601 470 45 36 250 196 434 339 111 87 142 110
392 307 99 77 202 158 230 180 28 22 88 69 134 105 46 36 118 92 160 125 88
69 141 110 480 374 135 105 259 201 275 215 55 44 303 239 391 307 32 25 122
95 199 155 77 60 154 118 170 128 17 11 35 25 40 32 6 7 60 51 120 98 155 122
207 162 315 247 195 154 276 215 312 238 21 12 41 28 45 35 5 7 42 40 84 72
42 32 154 120 249 194 239 188 336 263 400 312 30 24 147 115 259 203 112 88
269 211 350 273 80 63 155 121 166 130 11 9 40 32 65 51 25 19 74 58 110 86
92 73 755 591 1170 915 91 71 210 164 265 207 55 43 206 161 335 262 129 101
251 197 270 212 19 16 39 29 45 29 6 0 21 11 32 24 12 13 68 60 125 104 154
120 404 315 483 377 39 30 93 72 122 93 28 20 123 94 210 164 256 206 536 422
566 438 16 8 47 32 70 55 23 22 71 63 106 90 71 56 100 79 372 292 107 83 264
206 349 273 85 67 200 156 255 198 55 42 102 79 105 82 3 3 41 34 85 67 44 34
125 97 180 140 84 67 291 228 740 579 44 35 120 95 170 133 86 68 119 85 110
59z m-10642 -299 c-5 -5 -38 -27 -72 -47 -226 -136 -914 -587 -1128 -741 -431
-308 -733 -538 -1063 -809 -218 -179 -329 -274 -535 -458 -55 -49 -117 -104
-138 -122 l-38 -32 -10249 0 -10250 0 -26 58 c-166 373 -370 942 -499 1392
-62 216 -170 649 -181 723 l-6 47 12098 0 c8545 0 12095 -3 12087 -11z m-4053
-3288 c0 -4 -48 -62 -107 -127 -104 -117 -239 -274 -318 -369 -22 -27 -54 -65
-70 -85 -26 -29 -65 -78 -162 -200 -261 -327 -574 -759 -786 -1085 -43 -66
-92 -135 -108 -152 l-29 -33 -7906 0 -7906 0 -37 33 c-48 41 -178 194 -360
422 -178 224 -178 224 -377 495 -135 183 -366 524 -490 725 -121 194 -223 373
-216 379 9 10 18872 7 18872 -3z m-2226 -3190 c3 -5 -43 -109 -103 -232 -60
-123 -125 -260 -146 -304 -39 -84 -227 -524 -249 -585 -8 -19 -44 -114 -81
-210 -37 -96 -74 -193 -81 -215 -7 -22 -37 -112 -68 -200 l-54 -160 -5387 -3
-5386 -2 -122 77 c-250 160 -702 465 -880 595 -424 308 -772 582 -1062 833
-33 28 -96 83 -140 120 -44 38 -82 72 -85 75 -7 7 -168 151 -202 180 -15 13
-25 27 -22 32 7 11 14061 11 14068 -1z m-1094 -3008 c0 -10 -7 -54 -16 -98
-92 -457 -125 -646 -184 -1070 -16 -118 -39 -324 -51 -460 -6 -71 -12 -139
-14 -150 -2 -11 -4 -37 -4 -58 l-1 -37 -147 5 c-157 6 -604 31 -713 40 -533
45 -620 53 -715 64 -44 6 -145 17 -225 26 -80 9 -176 21 -215 26 -38 6 -104
14 -145 19 -136 17 -397 54 -585 84 -49 8 -117 19 -150 25 -33 5 -114 19 -180
31 -66 12 -142 25 -170 30 -27 5 -88 16 -135 25 -47 9 -116 23 -155 30 -38 7
-124 25 -190 39 -66 14 -174 36 -240 50 -122 26 -149 32 -265 60 -36 9 -105
25 -155 36 -179 42 -394 97 -595 152 -41 11 -88 24 -105 28 -16 4 -79 22 -140
40 -60 17 -119 34 -130 37 -35 9 -319 94 -345 103 -14 4 -79 25 -145 45 -273
85 -862 287 -960 330 -16 7 -50 20 -75 28 -25 9 -67 25 -95 35 -27 11 -93 36
-145 56 -52 20 -104 41 -115 46 -11 5 -56 23 -100 41 -81 31 -134 53 -170 69
-11 5 -47 20 -80 34 -61 24 -279 119 -357 155 -24 10 -78 35 -120 55 -43 19
-78 37 -78 40 0 3 1892 6 4205 6 3998 0 4205 -1 4205 -17z"/>
</g>
</svg>
