<?xml version="1.0" standalone="no"?>
<!DOCTYPE svg PUBLIC "-//W3C//DTD SVG 20010904//EN"
 "http://www.w3.org/TR/2001/REC-SVG-20010904/DTD/svg10.dtd">
<svg version="1.0" xmlns="http://www.w3.org/2000/svg"
 width="3900.000000pt" height="3948.000000pt" viewBox="0 0 3900.000000 3948.000000"
 preserveAspectRatio="xMidYMid meet">

<g transform="translate(0.000000,3948.000000) scale(0.100000,-0.100000)"
fill="#3f2817" stroke="#3f2817">
<path d="M26528 24933 l-3 -2346 -205 -49 c-1343 -316 -2254 -807 -2685 -1449
-61 -91 -152 -272 -180 -356 l-17 -53 -1267 0 -1268 0 -18 68 c-27 101 -109
339 -172 497 -201 508 -531 1089 -881 1549 -1299 1708 -3478 2879 -5959 3200
-472 62 -895 88 -1408 88 -395 0 -647 -11 -998 -43 -2798 -254 -5252 -1574
-6580 -3539 -545 -808 -872 -1684 -972 -2607 -17 -158 -36 -568 -30 -653 2
-30 6 -122 10 -205 6 -160 25 -355 51 -525 l16 -104 -33 -29 c-19 -16 -56 -44
-84 -62 -27 -18 -93 -70 -145 -115 -52 -45 -128 -107 -169 -138 -360 -269
-1019 -911 -1417 -1382 -1123 -1326 -1825 -2865 -2034 -4460 -178 -1361 -2
-2730 516 -4030 770 -1929 2303 -3643 4362 -4879 386 -232 1001 -551 1417
-735 1676 -742 3460 -1152 5425 -1246 230 -11 1133 -15 1256 -6 38 3 132 8
209 11 756 32 1635 144 2435 311 2163 452 4185 1392 5751 2675 304 249 462
392 787 713 1832 1809 2786 4063 2711 6401 -22 683 -118 1299 -304 1950 -359
1254 -1020 2431 -1964 3494 -199 224 -597 625 -811 815 -85 76 -164 147 -175
157 -19 19 31 19 2008 19 l2027 0 0 -640 0 -640 41 -83 c213 -423 486 -675
828 -764 78 -20 120 -25 226 -25 181 -1 298 27 497 118 l97 44 201 0 200 0 0
60 0 60 100 0 c68 0 110 -5 128 -14 15 -8 81 -55 147 -105 207 -156 347 -211
537 -211 261 0 501 52 740 161 59 27 115 49 123 49 9 0 23 7 31 15 41 41 173
44 257 6 25 -11 50 -21 56 -21 5 0 49 -13 98 -29 178 -58 237 -66 488 -66 249
1 332 12 498 70 59 20 93 25 170 25 l97 0 0 39 c0 49 6 51 130 51 124 0 130
-2 130 -51 l0 -39 188 0 187 0 97 -35 c169 -60 280 -78 453 -72 125 4 168 10
260 35 185 50 283 90 410 167 34 21 53 25 123 25 l82 0 0 58 c1 56 1 57 48 92
25 19 97 84 159 143 61 60 115 108 118 107 4 -1 10 2 13 6 4 4 0 4 -8 0 -8 -4
0 6 18 23 17 17 31 33 30 35 -2 2 21 41 51 86 101 155 158 310 187 501 14 96
16 161 10 414 -3 165 -9 324 -12 353 l-7 52 978 0 c936 0 981 1 1093 20 552
96 976 458 1141 973 49 154 64 273 58 461 -7 218 -41 362 -132 551 -196 407
-567 686 -1040 782 -70 14 -211 17 -1117 20 l-1037 4 -6 37 c-29 177 -76 350
-126 461 -16 35 -29 67 -29 72 0 12 -146 255 -188 313 -114 159 -264 323 -399
438 l-84 71 2 2291 c1 1260 1 2432 0 2604 l-1 312 -550 0 -550 0 0 -1350 c0
-757 -4 -1350 -9 -1350 -4 0 -78 33 -162 74 -400 194 -848 289 -1354 288 -507
0 -964 -102 -1367 -303 -158 -79 -240 -128 -355 -210 -49 -36 -91 -59 -107
-59 -19 0 -26 -5 -26 -20 0 -20 -7 -20 -474 -20 l-473 0 -7 31 c-3 17 -6 681
-6 1475 l0 1444 -550 0 -550 0 -2 -2347z m-13593 -133 c424 -20 762 -54 1142
-115 2167 -350 4011 -1418 5046 -2921 540 -785 815 -1788 747 -2729 -74 -1024
-498 -1982 -1250 -2830 -128 -144 -434 -444 -583 -572 -813 -697 -1849 -1240
-2975 -1558 -192 -54 -522 -135 -552 -135 -20 0 -20 4 -20 444 l0 444 118 37
c933 294 1824 844 2415 1492 491 539 813 1124 972 1766 80 324 93 484 76 885
-22 498 -77 907 -154 1127 -222 635 -573 1179 -1078 1670 -837 813 -2004 1361
-3299 1549 -2506 364 -4988 -654 -6064 -2487 -85 -145 -228 -444 -285 -597
-99 -267 -170 -551 -208 -835 -25 -185 -25 -716 0 -895 94 -675 337 -1262 762
-1836 245 -330 587 -669 960 -950 477 -360 1071 -666 1683 -868 l112 -38 0
-464 0 -464 -22 5 c-13 3 -66 14 -118 25 -655 143 -1376 397 -1981 701 -1280
641 -2318 1616 -2821 2649 -106 218 -264 633 -257 672 2 7 -13 63 -34 123 -39
117 -51 182 -66 341 -5 54 -16 153 -25 219 -72 558 -75 623 -40 978 80 810
400 1607 933 2317 985 1316 2637 2285 4551 2670 743 149 1580 215 2315 180z
m17787 -895 c423 -49 771 -198 1001 -426 64 -65 87 -94 87 -113 0 -16 6 -26
14 -26 17 0 60 -85 77 -153 26 -103 -9 -279 -67 -343 -13 -14 -24 -31 -24 -39
0 -24 -137 -160 -227 -224 -105 -76 -310 -177 -445 -220 -239 -76 -482 -107
-767 -98 -400 13 -745 114 -1019 299 -129 87 -265 229 -247 258 3 5 -4 12 -16
15 -13 5 -33 31 -52 74 -29 61 -32 74 -32 176 0 93 4 119 24 169 25 62 55 101
71 91 6 -4 10 8 10 27 0 28 12 45 83 113 100 99 204 171 351 241 190 91 435
159 657 183 136 14 384 12 521 -4z m-2697 -422 c-57 -196 -69 -462 -29 -661
l6 -28 -139 -13 c-76 -6 -160 -15 -186 -18 l-48 -6 2 379 c1 209 3 382 6 387
2 4 94 7 203 7 l199 0 -14 -47z m-15150 -1173 c990 -63 1880 -347 2608 -832
253 -168 446 -328 658 -544 457 -468 733 -997 826 -1586 25 -161 25 -566 -1
-728 -22 -141 -72 -340 -121 -479 -193 -553 -604 -1085 -1160 -1502 -504 -379
-1136 -668 -1802 -824 -87 -20 -176 -42 -198 -49 l-39 -11 1 -90 c1 -49 5
-1241 8 -2647 l6 -2558 -1159 0 -1160 0 -5 33 c-8 44 -16 1225 -23 3437 -3
1015 -9 1848 -12 1851 -4 3 -43 13 -87 23 -839 185 -1658 612 -2223 1161 -486
470 -787 1013 -892 1606 -31 174 -39 541 -16 719 76 579 332 1101 783 1595
509 558 1315 1017 2194 1249 338 89 810 162 1159 179 162 8 510 6 655 -3z
m16063 -696 c575 -333 1337 -455 2077 -333 201 33 448 100 620 169 91 36 293
136 376 186 50 30 65 34 128 34 56 0 82 -5 126 -27 l55 -27 0 -103 0 -103 130
0 130 0 0 -65 0 -65 84 0 84 0 46 -51 46 -51 0 -79 0 -78 57 -3 57 -3 49 -95
c28 -57 58 -134 72 -194 l25 -99 0 -1828 0 -1828 -79 -79 c-107 -109 -227
-196 -346 -252 -191 -91 -221 -91 -492 -1 -239 80 -348 103 -593 126 -284 27
-443 6 -677 -90 -209 -86 -218 -88 -388 -89 -161 -1 -265 18 -265 49 0 11 -11
15 -38 15 -22 0 -65 9 -98 20 -180 62 -403 77 -587 39 -112 -22 -218 -61 -379
-138 -112 -54 -226 -85 -343 -95 l-70 -6 -77 62 c-65 51 -78 66 -78 90 0 26
-3 28 -40 28 -29 0 -64 13 -124 45 -189 102 -340 139 -571 140 -257 0 -384
-35 -727 -201 -181 -88 -228 -107 -278 -111 l-60 -6 0 67 0 66 -85 0 -85 0
-39 59 -38 59 -6 1204 c-7 1217 -12 1404 -47 1648 -46 317 -145 566 -287 721
-51 54 -53 59 -53 113 l0 56 -69 0 c-62 0 -77 4 -144 40 -90 49 -164 75 -282
102 -78 17 -138 21 -442 25 -277 4 -353 8 -353 18 0 7 60 52 133 100 625 409
1733 716 2997 829 214 20 574 40 758 44 l92 2 98 -56z m-3417 -1755 c60 -20
97 -66 124 -150 50 -158 70 -350 81 -776 l7 -253 -2328 0 -2327 0 5 23 c3 12
11 117 18 232 13 232 6 522 -16 760 -8 83 -15 156 -15 163 0 17 4399 18 4451
1z m10493 -32 c135 -64 224 -173 310 -374 38 -92 41 -104 41 -193 0 -112 -15
-151 -115 -299 -87 -130 -120 -160 -251 -225 l-114 -56 -982 0 -983 0 0 595 0
595 1008 -2 1007 -3 79 -38z m-31664 -2712 c92 -215 262 -542 408 -785 464
-772 1077 -1441 1854 -2025 703 -528 1518 -958 2433 -1283 353 -125 863 -267
1245 -346 96 -20 183 -39 193 -42 16 -5 17 -65 17 -1083 l0 -1078 -46 -7 c-74
-10 -9267 -7 -9283 3 -26 17 -43 284 -45 701 -1 377 4 473 40 795 179 1627
972 3201 2286 4539 71 71 130 138 133 147 3 10 20 26 38 37 18 11 88 70 157
131 294 262 501 434 511 424 4 -5 31 -62 59 -128z m16544 -40 c399 -336 814
-753 1149 -1154 225 -269 497 -636 497 -671 0 -11 6 -20 13 -20 20 0 242 -349
387 -610 78 -139 250 -487 310 -625 261 -601 437 -1210 525 -1815 31 -215 54
-433 46 -441 -3 -4 -105 -12 -226 -18 -1738 -90 -3387 -451 -4920 -1076 -99
-40 -227 -94 -285 -120 -58 -26 -119 -51 -137 -56 -19 -6 -743 -8 -1895 -7
l-1863 3 -3 1077 -2 1077 57 11 c962 193 1750 454 2533 841 1406 694 2498
1663 3215 2854 135 223 344 646 425 859 9 26 12 27 28 14 9 -8 75 -63 146
-123z m1741 -6564 c-11 -10 -693 -544 -1515 -1187 -822 -642 -1668 -1303
-1880 -1469 -212 -166 -986 -771 -1720 -1345 -734 -574 -1456 -1139 -1605
-1255 -148 -116 -517 -405 -820 -641 -302 -237 -862 -675 -1244 -973 -381
-298 -695 -540 -697 -538 -6 5 48 268 86 417 230 917 634 1778 1212 2581 158
219 181 249 196 249 7 0 10 5 7 10 -3 6 -2 10 4 10 5 0 12 -6 15 -12 3 -7 3
-2 0 11 -3 13 -2 21 3 18 5 -3 10 3 10 14 4 52 482 590 799 899 1584 1543
3766 2624 6239 3089 250 47 828 136 905 140 24 1 24 1 5 -18z m1100 -563 c-2
-7 -13 -62 -25 -123 -28 -146 -100 -433 -149 -597 -370 -1238 -1072 -2380
-2081 -3388 -1445 -1444 -3445 -2512 -5690 -3039 -297 -69 -615 -133 -902
-180 -292 -48 -614 -93 -636 -89 -10 2 71 71 202 173 120 94 241 189 270 211
28 23 809 634 1736 1358 927 725 1700 1329 1719 1344 19 15 141 110 271 212
194 152 1138 890 2070 1619 452 354 508 397 551 431 26 19 147 114 270 210
123 97 236 185 250 195 15 11 118 92 230 181 112 88 227 177 254 198 28 21 68
52 89 70 142 115 1562 1225 1568 1225 4 1 6 -5 3 -11z m-6860 -196 c-6 -5 -71
-46 -145 -92 -573 -353 -1200 -818 -1667 -1238 l-102 -92 -6612 2 -6613 3 -68
165 c-163 390 -301 821 -377 1178 l-18 82 7806 0 c4293 0 7801 -4 7796 -8z
m-2646 -2159 c-319 -360 -568 -680 -834 -1071 l-141 -207 -5101 -3 -5101 -2
-49 54 c-76 82 -277 334 -398 496 -159 215 -505 744 -505 773 0 4 2739 7 6086
7 l6086 0 -43 -47z m-1399 -2016 c0 -2 -43 -94 -95 -204 -152 -325 -311 -714
-386 -950 l-23 -73 -3472 0 -3473 0 -98 62 c-240 151 -594 398 -818 571 -218
169 -372 298 -674 564 l-36 32 4538 1 c2495 0 4537 -1 4537 -3z m-706 -1944
c-56 -252 -124 -680 -155 -985 -11 -117 -22 -214 -23 -215 0 -1 -84 3 -186 8
-868 42 -1747 165 -2585 360 -797 186 -1740 505 -2415 817 l-65 31 2717 0
c2582 1 2716 0 2712 -16z"/>
<path d="M33704 16416 c1 -8 5 -18 8 -22 4 -3 5 1 4 10 -1 8 -5 18 -8 22 -4 3
-5 -1 -4 -10z"/>
<path d="M34560 13605 l0 -1345 -1640 0 -1640 0 0 -555 0 -555 1638 -2 1637
-3 3 -1342 2 -1343 550 0 550 0 0 1345 0 1345 1550 0 1550 0 0 555 0 555
-1547 0 -1548 0 0 958 c0 526 -1 1131 -3 1345 l-2 387 -550 0 -550 0 0 -1345z"/>
</g>
</svg>
