<?xml version="1.0" standalone="no"?>
<!DOCTYPE svg PUBLIC "-//W3C//DTD SVG 20010904//EN"
 "http://www.w3.org/TR/2001/REC-SVG-20010904/DTD/svg10.dtd">
<svg version="1.0" xmlns="http://www.w3.org/2000/svg"
 width="3935.000000pt" height="6183.000000pt" viewBox="0 0 3935.000000 6183.000000"
 preserveAspectRatio="xMidYMid meet">

<g transform="translate(0.000000,6183.000000) scale(0.100000,-0.100000)"
fill="#3f2817" stroke="#3f2817">
<path d="M18675 40623 c-3436 -89 -6717 -1221 -9105 -3142 -529 -425 -1059
-936 -1481 -1426 -1159 -1348 -1887 -2898 -2118 -4510 -66 -457 -86 -782 -78
-1280 5 -359 19 -565 57 -865 11 -85 20 -162 20 -171 0 -9 -82 -83 -182 -164
-527 -430 -927 -795 -1468 -1342 -285 -287 -379 -384 -575 -593 -55 -59 -254
-282 -317 -355 -14 -16 -47 -55 -73 -85 -48 -56 -56 -65 -136 -160 -136 -162
-412 -515 -549 -700 -238 -322 -638 -921 -768 -1150 -14 -24 -49 -84 -79 -133
-29 -48 -53 -89 -53 -92 0 -2 -20 -38 -45 -79 -25 -42 -45 -79 -45 -81 0 -3
-13 -26 -29 -52 -63 -105 -336 -641 -433 -852 -77 -167 -121 -269 -192 -441
-43 -102 -81 -194 -86 -205 -33 -70 -183 -476 -250 -675 -12 -36 -25 -74 -30
-85 -5 -11 -11 -29 -14 -40 -2 -11 -22 -78 -44 -150 -105 -343 -196 -680 -267
-990 -15 -66 -37 -165 -50 -220 -13 -55 -29 -140 -35 -189 -6 -49 -13 -93 -15
-97 -3 -4 -9 -35 -15 -70 -5 -35 -17 -107 -25 -159 -26 -161 -50 -335 -92
-670 -15 -117 -17 -280 -20 -1250 -4 -1270 -7 -1221 92 -1895 9 -60 23 -146
30 -190 8 -44 21 -123 30 -175 45 -262 168 -813 225 -1005 5 -16 16 -55 24
-85 20 -73 68 -236 116 -390 21 -69 41 -143 45 -165 4 -22 10 -44 14 -50 4 -5
34 -82 65 -170 31 -88 64 -178 73 -200 8 -22 21 -56 28 -75 118 -316 272 -686
380 -915 66 -141 319 -648 350 -705 20 -36 57 -103 82 -150 52 -96 185 -328
250 -435 217 -360 373 -599 623 -955 78 -110 330 -451 340 -460 3 -3 28 -34
55 -70 45 -59 157 -200 259 -325 502 -615 1175 -1309 1821 -1876 898 -789
1763 -1438 2680 -2011 2749 -1715 6025 -2794 9475 -3122 874 -83 1556 -111
2510 -103 639 6 795 11 1300 42 4305 268 8375 1705 11545 4075 1281 958 2339
1995 3331 3265 147 188 376 494 434 580 19 28 36 52 40 55 3 3 39 55 80 115
41 61 94 139 118 175 158 230 416 649 564 915 128 229 328 603 328 614 0 4 15
37 33 72 182 349 457 1008 644 1544 80 227 93 268 118 360 14 50 38 137 55
195 52 175 60 206 125 455 25 99 53 212 62 250 8 39 19 86 23 105 53 233 126
621 145 770 10 74 21 162 26 195 93 646 132 1365 110 2034 -6 207 -16 435 -21
506 -18 275 -64 691 -105 960 -7 50 -16 117 -20 150 -3 33 -10 80 -15 105 -5
25 -23 119 -40 210 -17 91 -35 183 -40 205 -5 22 -19 83 -30 135 -68 305 -113
485 -190 755 -17 61 -34 119 -37 130 -38 140 -180 581 -218 675 -7 19 -37 98
-65 175 -63 172 -147 384 -160 407 -6 10 -10 23 -10 29 0 10 -23 64 -101 236
-16 34 -40 91 -55 125 -34 81 -110 241 -235 493 -132 267 -224 439 -377 705
-52 91 -104 181 -115 200 -95 169 -499 788 -717 1100 -953 1360 -2133 2583
-3510 3639 -124 95 -239 185 -257 199 l-31 27 14 145 c20 207 29 832 15 1070
-53 918 -243 1769 -581 2615 -720 1799 -2088 3422 -3925 4661 -2558 1724
-5814 2616 -9230 2527z m925 -1463 c1177 -41 2281 -195 3330 -466 2514 -650
4623 -1892 6093 -3588 994 -1146 1596 -2396 1801 -3736 50 -327 84 -792 57
-775 -10 6 -11 -22 -6 -136 8 -161 -7 -542 -31 -784 -55 -576 -196 -1185 -399
-1729 -334 -897 -827 -1707 -1520 -2501 -169 -194 -606 -634 -805 -810 -1039
-919 -2256 -1645 -3675 -2189 -2055 -789 -4435 -1102 -6770 -891 -2718 247
-5251 1210 -7135 2714 -1631 1302 -2695 2943 -3054 4706 -242 1191 -162 2408
233 3567 586 1718 1856 3267 3641 4440 1183 778 2547 1365 4035 1737 1338 334
2813 489 4205 441z m12638 -11757 c26 -21 74 -60 107 -88 84 -71 269 -229 275
-235 3 -3 25 -23 50 -44 49 -43 199 -179 320 -291 277 -257 787 -781 981
-1010 19 -22 36 -42 39 -45 19 -17 263 -306 351 -415 261 -323 612 -801 632
-859 5 -17 20 -40 32 -51 21 -18 150 -207 233 -340 89 -144 292 -484 292 -491
0 -2 11 -21 23 -42 13 -20 42 -71 64 -112 22 -41 54 -100 70 -130 62 -116 242
-480 326 -660 95 -204 278 -657 364 -900 83 -235 104 -303 99 -317 -5 -11 -40
-13 -198 -8 -106 2 -407 7 -668 10 -2552 29 -5321 171 -7205 371 -585 61
-1330 158 -1349 175 -5 4 18 21 50 38 78 40 228 126 329 188 11 7 27 16 35 20
8 4 64 37 123 75 60 37 111 68 113 68 3 0 17 9 32 19 15 10 74 49 132 87 58
37 138 89 179 116 41 26 80 48 87 48 8 0 14 3 14 8 0 7 30 30 325 244 99 72
238 176 309 232 70 55 140 107 155 115 14 8 28 18 29 23 2 4 81 73 175 152 95
79 181 152 192 162 11 11 61 55 110 99 154 137 223 202 465 445 303 302 488
508 804 893 133 163 353 466 514 709 122 183 372 589 372 603 0 3 10 22 23 43
45 71 307 580 307 595 0 3 17 43 39 89 21 45 73 165 116 266 42 100 79 182 82
182 2 0 26 -17 51 -37z m-25739 -90 c33 -93 194 -444 296 -646 806 -1595 2133
-3018 3843 -4120 308 -199 699 -427 994 -582 140 -73 153 -62 -117 -99 -1832
-254 -4715 -432 -7845 -485 -1323 -23 -1380 -23 -1380 -8 0 41 204 604 328
907 130 317 367 816 537 1130 81 150 218 380 225 380 4 0 26 36 49 80 49 97
78 144 237 386 41 61 82 118 93 128 10 10 34 47 53 83 18 36 53 90 78 122 25
31 56 72 70 91 13 19 64 89 113 155 49 66 96 131 105 144 27 38 309 388 429
531 75 90 324 371 383 432 30 32 91 99 135 150 44 51 111 122 150 158 38 36
88 85 110 109 22 24 74 80 116 125 42 45 79 91 83 102 3 12 16 26 29 31 31 14
120 87 187 153 30 30 71 68 90 84 19 15 58 49 85 75 28 26 73 62 100 81 28 18
54 40 58 47 10 17 336 293 345 293 5 0 14 -17 21 -37z m19431 -6052 c1563
-372 4849 -643 8865 -731 248 -5 711 -12 1030 -15 319 -3 657 -8 752 -11 l171
-6 11 -57 c6 -31 18 -85 26 -121 76 -327 175 -985 192 -1281 l6 -96 -154 -6
c-269 -12 -856 -49 -1044 -66 -60 -6 -184 -18 -275 -26 -91 -9 -199 -20 -240
-25 -41 -5 -120 -14 -175 -20 -197 -20 -600 -72 -845 -110 -187 -28 -394 -62
-523 -84 -48 -9 -124 -22 -170 -30 -229 -40 -318 -58 -647 -126 -236 -49 -269
-56 -435 -94 -33 -8 -91 -21 -130 -30 -99 -22 -639 -159 -770 -195 -16 -5 -73
-20 -125 -35 -52 -14 -117 -33 -145 -41 -27 -8 -135 -40 -240 -70 -104 -31
-201 -60 -215 -65 -14 -4 -92 -30 -175 -55 -175 -55 -481 -156 -575 -190 -36
-13 -105 -38 -155 -55 -109 -38 -296 -106 -347 -126 -21 -8 -57 -21 -80 -30
-24 -9 -52 -20 -63 -25 -11 -5 -67 -27 -125 -48 -197 -74 -732 -296 -907 -377
l-74 -34 -2920 0 -2919 0 2 1672 3 1672 35 7 c19 4 73 15 120 24 118 22 448
92 550 116 118 28 398 97 440 108 19 6 112 31 205 57 94 25 222 62 285 81 63
19 135 41 160 48 164 48 644 208 705 236 11 5 43 16 70 25 28 9 64 22 80 28
17 7 68 28 115 45 47 18 117 45 155 61 39 15 77 30 85 33 8 3 69 28 135 56 66
27 127 48 135 46 8 -3 71 -18 140 -34z m-12700 -22 c372 -145 1172 -419 1470
-504 216 -62 299 -86 325 -94 72 -24 646 -168 758 -190 23 -5 119 -25 212 -45
94 -20 195 -41 225 -48 30 -6 63 -15 72 -20 17 -8 18 -102 18 -1678 0 -1155
-3 -1671 -11 -1675 -12 -8 -14451 -7 -14458 1 -14 13 -48 445 -62 784 -26 627
26 1377 142 2075 42 252 120 640 132 651 2 2 199 6 438 9 680 9 1676 24 1879
30 102 3 349 10 550 15 3186 87 5985 310 7558 601 208 38 494 99 557 118 54
17 89 11 195 -30z m7973 -986 c3 -21 6 -636 7 -1368 1 -731 2 -1457 3 -1612 1
-155 -1 -284 -5 -288 -3 -4 -812 -8 -1798 -10 -1371 -3 -1792 -1 -1794 8 -2 7
-8 30 -14 52 -8 27 -13 546 -17 1624 l-6 1583 48 -6 c66 -8 403 -32 668 -48
293 -17 1423 -17 1720 0 415 24 795 57 1171 101 7 0 14 -16 17 -36z m13957
-3183 c0 -5 -44 -43 -97 -84 -54 -41 -168 -129 -253 -196 -85 -67 -189 -148
-230 -180 -74 -58 -334 -261 -624 -488 -81 -65 -183 -144 -226 -177 -42 -33
-113 -88 -156 -122 -295 -231 -401 -314 -488 -381 -121 -95 -163 -127 -411
-322 -450 -353 -504 -395 -595 -465 -119 -92 -342 -266 -581 -455 -101 -79
-287 -225 -414 -323 -126 -98 -239 -186 -250 -195 -11 -10 -40 -32 -65 -51
-25 -19 -74 -58 -110 -86 -36 -29 -222 -175 -415 -325 -192 -150 -379 -296
-415 -325 -36 -28 -85 -67 -110 -85 -25 -19 -97 -75 -160 -125 -138 -109 -798
-626 -855 -669 -22 -17 -42 -33 -45 -36 -3 -3 -34 -28 -70 -55 -36 -28 -74
-57 -85 -66 -11 -10 -74 -59 -140 -110 -66 -51 -149 -116 -185 -144 -106 -84
-515 -405 -600 -470 -93 -71 -321 -249 -405 -316 -33 -26 -150 -118 -260 -204
-110 -86 -213 -167 -230 -180 -28 -22 -125 -97 -345 -269 -52 -41 -171 -134
-265 -207 -93 -73 -199 -156 -235 -184 -94 -74 -204 -160 -301 -235 -46 -36
-117 -92 -159 -125 -41 -33 -124 -98 -185 -145 -60 -47 -218 -170 -350 -273
-132 -104 -276 -216 -320 -251 -144 -112 -346 -269 -489 -382 -78 -60 -226
-177 -331 -258 -104 -81 -199 -155 -210 -165 -11 -9 -72 -56 -135 -106 -119
-92 -202 -157 -317 -248 -38 -30 -194 -152 -348 -272 -154 -120 -300 -234
-325 -254 -25 -21 -153 -121 -285 -223 -220 -172 -318 -248 -749 -586 -81 -65
-183 -144 -226 -177 -43 -33 -154 -119 -246 -192 -385 -301 -427 -333 -435
-333 -5 0 -9 2 -9 5 0 10 60 309 70 350 5 22 16 69 24 105 39 170 59 252 82
335 13 50 31 117 40 150 9 33 22 78 29 100 7 22 21 67 30 100 10 33 24 80 32
105 8 25 34 106 58 180 48 149 107 323 132 385 8 22 22 58 30 80 9 22 19 49
24 60 4 11 42 106 84 210 42 105 94 226 116 270 21 45 39 85 39 89 0 5 11 32
24 60 13 28 34 74 46 101 26 57 152 314 225 455 27 52 54 98 60 102 6 4 20 26
29 50 31 72 39 90 92 183 110 196 207 361 221 375 19 20 73 106 98 155 26 53
271 423 300 455 13 14 49 66 81 115 31 50 122 177 200 283 139 186 145 192
179 192 33 0 35 2 35 34 0 19 4 45 9 58 15 36 397 493 600 717 258 285 748
777 977 981 21 19 86 78 144 130 96 87 222 198 296 260 54 45 310 255 349 286
22 17 76 60 120 96 446 358 1166 854 1723 1189 188 113 335 199 338 199 2 0
21 11 42 23 69 44 378 213 627 344 145 76 662 333 670 333 2 0 51 22 107 49
57 27 144 67 193 89 50 22 117 52 150 66 65 29 72 32 158 70 147 66 413 174
602 247 72 27 144 56 160 63 17 8 50 21 75 30 25 8 83 29 130 47 148 55 518
184 665 233 120 40 340 109 525 165 74 23 149 45 165 50 57 18 420 120 460
130 22 5 94 24 160 41 66 17 147 38 180 46 33 8 96 23 140 34 44 11 139 33
210 50 72 17 148 35 170 40 267 65 907 188 1335 256 52 8 120 19 150 24 30 6
91 15 135 21 44 6 125 17 180 25 55 8 138 19 185 24 47 6 108 14 135 19 70 12
95 13 95 1z m1666 -998 c-9 -48 -21 -105 -26 -127 -50 -225 -78 -341 -107
-455 -19 -74 -39 -153 -44 -175 -10 -41 -59 -213 -105 -365 -28 -91 -131 -399
-163 -485 -16 -44 -42 -116 -59 -160 -16 -44 -59 -154 -96 -245 -82 -202 -77
-191 -115 -272 -17 -37 -31 -70 -31 -72 0 -3 -18 -44 -40 -91 -22 -47 -40 -88
-40 -91 0 -7 -262 -530 -316 -630 -106 -198 -372 -654 -434 -744 -10 -14 -75
-113 -145 -220 -249 -379 -595 -847 -851 -1150 -232 -274 -323 -377 -524 -595
-150 -164 -760 -764 -930 -917 -186 -166 -471 -411 -610 -523 -41 -33 -77 -63
-80 -66 -11 -12 -412 -321 -540 -415 -387 -286 -885 -620 -1303 -873 -175
-106 -407 -241 -413 -241 -2 0 -32 -17 -66 -38 -59 -35 -228 -129 -428 -237
-107 -57 -728 -368 -835 -417 -301 -139 -433 -198 -720 -318 -290 -121 -270
-113 -350 -145 -38 -15 -90 -36 -115 -45 -69 -28 -441 -167 -565 -212 -219
-79 -786 -265 -965 -318 -41 -12 -86 -25 -100 -30 -14 -5 -52 -16 -85 -25 -74
-21 -134 -38 -205 -59 -30 -8 -122 -33 -205 -56 -82 -22 -172 -46 -200 -54
-27 -8 -108 -28 -180 -45 -71 -18 -146 -36 -165 -41 -19 -6 -96 -24 -170 -41
-74 -16 -162 -37 -195 -44 -58 -14 -378 -82 -520 -110 -249 -50 -523 -99 -780
-140 -55 -9 -125 -20 -155 -25 -90 -16 -407 -60 -530 -75 -63 -8 -136 -17
-162 -21 -28 -4 -48 -3 -48 3 0 5 129 110 287 234 158 123 311 243 340 267 29
23 55 42 58 42 3 0 13 8 23 17 10 10 56 47 102 83 46 36 120 93 164 128 45 35
117 91 161 126 44 34 214 168 378 297 286 224 348 273 538 418 46 36 86 68 89
71 3 3 34 28 70 55 36 28 173 134 305 238 132 103 284 222 339 265 54 42 153
120 220 172 66 53 173 136 236 185 63 48 145 112 183 142 37 29 97 77 135 106
65 51 217 171 332 260 30 24 98 77 150 118 124 98 339 266 453 354 49 39 116
90 147 115 31 25 104 81 161 124 57 44 106 83 109 86 5 6 108 86 228 178 32
23 66 51 77 61 11 9 52 42 90 71 39 30 204 159 367 287 163 128 301 233 306
233 6 0 32 21 58 46 27 25 81 70 119 99 39 30 111 86 160 125 50 39 106 83
125 98 259 202 312 242 319 242 4 0 23 15 42 33 44 41 182 152 499 397 102 79
226 176 275 215 50 40 205 161 345 270 212 165 391 306 470 368 8 7 35 27 60
46 25 19 74 58 110 86 53 43 477 374 845 661 44 35 116 91 161 126 44 35 118
92 164 128 155 121 295 230 378 296 237 187 456 355 475 365 12 6 31 22 42 34
11 12 94 80 185 151 91 70 197 153 236 183 208 164 278 217 297 224 11 4 34
22 51 40 16 18 98 85 181 150 82 65 226 177 318 250 93 73 192 146 220 163 28
17 71 52 96 76 25 25 75 67 111 93 36 27 67 52 70 55 3 3 25 21 50 40 25 18
75 58 113 87 37 29 97 77 135 106 37 29 105 83 152 120 86 68 555 434 710 554
47 37 114 90 150 118 36 28 191 150 345 270 154 120 309 242 345 270 301 239
283 232 256 87z m-10644 -212 c-18 -11 -36 -20 -40 -20 -4 0 -29 -17 -57 -38
-46 -35 -104 -73 -148 -97 -107 -59 -681 -441 -962 -638 -164 -116 -555 -404
-565 -417 -3 -3 -43 -35 -90 -70 -47 -35 -119 -91 -160 -125 -41 -33 -124
-101 -185 -150 -201 -163 -476 -398 -610 -520 -55 -51 -111 -99 -125 -107 -22
-14 -1098 -15 -10265 -14 l-10240 1 -27 55 c-15 30 -45 100 -67 155 -22 55
-54 134 -71 175 -104 249 -258 699 -357 1040 -63 219 -175 662 -188 748 l-7
42 12099 0 c12095 0 12098 0 12065 -20z m-4038 -3282 c-4 -7 -71 -85 -149
-173 -444 -504 -937 -1145 -1255 -1635 -41 -63 -94 -141 -119 -172 l-44 -58
-7911 0 -7911 0 -39 33 c-92 77 -560 663 -798 1001 -202 287 -549 828 -637
994 l-12 22 9441 0 c7550 0 9440 -3 9434 -12z m-2214 -3184 c0 -3 -40 -88 -89
-187 -49 -100 -103 -213 -121 -252 -17 -38 -45 -97 -60 -130 -16 -33 -38 -82
-48 -110 -11 -27 -32 -77 -46 -110 -15 -33 -31 -69 -36 -80 -81 -183 -243
-601 -307 -795 -13 -41 -28 -84 -33 -95 -5 -11 -16 -45 -26 -75 -9 -30 -21
-61 -27 -67 -7 -10 -1096 -13 -5382 -13 l-5372 0 -109 66 c-283 171 -804 529
-1176 808 -287 215 -821 649 -960 778 -7 7 -54 49 -103 93 -143 127 -175 158
-175 167 0 4 3166 8 7035 8 3869 0 7035 -3 7035 -6z m-1100 -3009 c0 -15 -15
-94 -30 -160 -8 -36 -50 -254 -85 -445 -8 -41 -21 -122 -30 -180 -9 -58 -20
-132 -26 -165 -20 -122 -54 -414 -79 -680 -12 -121 -23 -225 -25 -232 -5 -14
-53 -12 -580 17 -175 9 -225 13 -600 45 -249 22 -534 52 -760 80 -60 8 -166
21 -235 30 -69 8 -170 22 -225 31 -55 8 -145 21 -200 29 -55 9 -122 20 -150
25 -27 5 -72 12 -100 15 -27 4 -86 13 -130 21 -44 8 -105 19 -135 24 -173 30
-533 100 -725 142 -77 16 -171 37 -210 45 -38 8 -86 18 -105 23 -19 4 -64 15
-100 23 -238 55 -515 125 -760 192 -52 15 -108 30 -125 34 -372 101 -877 260
-1300 409 -299 106 -511 183 -550 201 -11 6 -74 30 -140 56 -66 25 -129 50
-140 55 -11 5 -72 30 -135 55 -63 26 -129 53 -147 61 -17 8 -33 14 -36 14 -3
0 -45 18 -92 40 -47 22 -88 40 -90 40 -2 0 -36 15 -77 34 -40 18 -116 52 -168
75 -52 23 -102 46 -110 51 -10 6 1476 10 4193 10 3669 0 4207 -2 4207 -15z"/>
<path d="M18700 37170 c-1566 -95 -2975 -474 -4245 -1143 -1235 -651 -2253
-1552 -2941 -2602 -183 -280 -385 -651 -507 -935 -169 -389 -315 -915 -392
-1410 -144 -920 -76 -1892 187 -2699 371 -1137 1087 -2170 2108 -3042 304
-259 724 -559 1110 -791 1856 -1119 4230 -1597 6565 -1322 2605 306 4921 1549
6249 3354 55 74 111 151 126 170 39 52 229 351 295 465 32 55 75 127 94 160
52 86 281 552 281 571 0 2 9 23 19 47 128 279 273 750 345 1117 62 314 75 450
70 720 -4 249 -11 331 -64 715 -15 107 -18 155 -11 203 6 38 6 88 0 129 -5 36
-7 73 -5 82 10 32 7 98 -8 181 -9 46 -21 136 -26 199 -6 64 -15 134 -21 156
-6 22 -17 78 -24 125 -10 64 -21 98 -45 137 -39 63 -110 265 -110 315 0 26 -7
44 -24 60 -13 13 -40 68 -61 123 -308 810 -835 1605 -1520 2290 -651 653
-1406 1185 -2290 1616 -1142 557 -2377 883 -3760 995 -233 18 -1161 28 -1395
14z m1160 -1530 c208 -13 531 -45 720 -71 2490 -343 4589 -1673 5485 -3474
334 -672 479 -1309 462 -2030 -8 -328 -39 -575 -108 -865 -432 -1817 -2051
-3355 -4301 -4089 -706 -230 -1437 -366 -2268 -422 -380 -26 -1030 -14 -1460
27 -1656 157 -3189 746 -4345 1669 -401 320 -780 707 -1060 1081 -527 705
-833 1462 -921 2284 -11 104 -17 241 -17 415 0 483 64 880 218 1340 233 701
628 1329 1205 1919 521 532 1095 946 1815 1311 869 440 1801 719 2835 849 544
69 1188 89 1740 56z"/>
</g>
</svg>
