<?xml version="1.0" standalone="no"?>
<!DOCTYPE svg PUBLIC "-//W3C//DTD SVG 20010904//EN"
 "http://www.w3.org/TR/2001/REC-SVG-20010904/DTD/svg10.dtd">
<svg version="1.0" xmlns="http://www.w3.org/2000/svg"
 width="3937.000000pt" height="6300.000000pt" viewBox="0 0 3937.000000 6300.000000"
 preserveAspectRatio="xMidYMid meet">

<g transform="translate(0.000000,6300.000000) scale(0.100000,-0.100000)"
fill="#3f2817" stroke="#3f2817">
<path d="M13385 55979 c-1514 -131 -2861 -1048 -3541 -2409 -277 -555 -420
-1101 -458 -1760 -11 -177 -6 -14446 4 -14615 29 -469 126 -905 297 -1345 67
-173 251 -537 352 -698 777 -1238 2085 -2005 3530 -2068 l154 -7 -7 -301 c-22
-1017 -98 -1869 -191 -2165 -24 -74 -33 -89 -90 -146 -35 -35 -77 -71 -95 -80
-17 -9 -125 -43 -238 -76 -1958 -568 -3789 -1388 -5417 -2427 -1090 -696
-2067 -1472 -2940 -2332 -735 -726 -1204 -1240 -1634 -1795 -51 -66 -100 -129
-109 -140 -40 -48 -257 -342 -347 -470 -152 -216 -331 -486 -476 -719 -100
-161 -113 -182 -152 -251 -19 -33 -58 -100 -87 -150 -172 -294 -427 -786 -563
-1085 -36 -80 -80 -176 -97 -215 -36 -78 -122 -287 -182 -440 -21 -55 -45
-113 -52 -130 -8 -16 -21 -50 -29 -75 -9 -25 -26 -70 -37 -100 -32 -82 -150
-418 -165 -470 -7 -25 -45 -151 -85 -280 -39 -129 -77 -260 -85 -290 -7 -30
-36 -143 -63 -250 -28 -107 -66 -267 -86 -355 -20 -88 -40 -176 -46 -195 -6
-19 -17 -80 -25 -135 -8 -55 -22 -136 -30 -180 -46 -245 -105 -686 -134 -990
-39 -418 -53 -726 -53 -1165 0 -634 29 -1046 122 -1750 6 -41 26 -169 46 -285
19 -115 40 -239 45 -275 9 -62 29 -167 49 -255 21 -95 74 -316 91 -380 66
-257 91 -354 99 -380 6 -16 24 -77 40 -135 40 -138 89 -299 100 -330 5 -14 11
-43 12 -65 2 -22 8 -44 14 -50 6 -5 33 -71 59 -145 25 -74 50 -144 55 -155 5
-11 31 -81 58 -155 47 -126 171 -440 192 -485 5 -11 19 -45 30 -75 22 -58 24
-62 90 -205 99 -215 122 -263 241 -505 139 -282 393 -747 479 -880 6 -8 13
-22 17 -30 7 -15 108 -180 188 -308 59 -93 312 -476 369 -557 119 -169 357
-492 431 -585 28 -36 79 -101 114 -145 173 -221 464 -565 659 -780 403 -444
920 -952 1368 -1345 911 -799 2108 -1658 3197 -2294 2907 -1697 6322 -2695
9892 -2891 873 -48 1809 -48 2670 0 4789 267 9237 1959 12565 4781 651 552
1397 1282 1930 1888 19 22 56 63 81 91 43 48 265 312 339 405 19 24 55 69 80
99 96 118 313 404 451 596 249 345 610 899 776 1194 76 135 239 432 298 546
38 72 77 141 87 154 10 13 18 30 18 37 0 7 36 88 81 181 44 92 89 186 99 208
10 22 51 114 93 205 41 91 78 176 82 190 4 14 11 30 15 35 3 6 15 33 25 60 9
28 23 64 31 80 29 67 76 190 144 375 39 107 75 204 80 215 5 11 22 61 39 110
17 50 40 117 52 150 12 33 34 105 49 160 15 55 49 172 74 260 72 246 201 761
225 895 5 25 29 146 54 270 25 124 51 272 57 330 6 58 13 112 15 120 16 56 78
603 95 845 6 77 12 163 15 190 16 163 26 673 20 1001 -3 204 -8 384 -10 400
-2 16 -9 112 -15 214 -6 102 -13 196 -15 210 -3 14 -9 81 -15 150 -6 69 -15
161 -21 205 -15 120 -39 298 -54 405 -7 52 -16 124 -20 160 -4 36 -11 81 -16
100 -5 19 -22 109 -39 200 -17 91 -35 183 -40 205 -5 22 -26 113 -45 202 -33
152 -102 430 -140 568 -10 33 -21 74 -25 90 -44 161 -139 471 -203 660 -54
158 -223 613 -256 690 -10 22 -24 56 -31 75 -12 32 -99 233 -140 325 -10 22
-30 67 -45 100 -178 404 -498 1010 -766 1450 -785 1290 -1687 2419 -2724 3408
-1704 1626 -3773 2938 -6120 3882 -942 379 -1864 677 -2895 935 -134 34 -267
73 -295 87 -114 58 -221 148 -256 216 -75 145 -142 631 -184 1342 -16 283 -35
717 -35 833 l0 72 93 0 c289 0 697 55 1007 136 1369 357 2474 1336 2993 2654
160 407 256 841 287 1300 8 120 10 2169 8 7475 -3 6952 -4 7317 -21 7445 -62
470 -166 865 -326 1238 -416 971 -1157 1751 -2106 2219 -439 216 -880 347
-1415 420 -117 16 -512 17 -5830 19 -3146 1 -5750 -3 -5805 -7z m11320 -1353
c389 -16 794 -127 1180 -324 652 -334 1170 -905 1438 -1587 86 -218 136 -406
180 -670 21 -130 21 -134 24 -2243 l3 -2113 -327 2 c-578 4 -1436 25 -2223 54
-5150 194 -9689 861 -12280 1805 -1094 399 -1829 857 -1940 1209 -21 66 -22
79 -17 597 5 566 8 620 63 883 210 1020 976 1888 1969 2231 278 96 591 154
875 163 165 5 10925 -2 11055 -7z m-13859 -5762 c251 -143 644 -328 994 -469
2463 -992 6787 -1713 11870 -1980 1058 -55 2038 -89 2907 -100 241 -3 465 -8
498 -10 33 -2 140 -4 238 -4 l177 -1 -3 -4572 -2 -4573 -23 -135 c-148 -887
-607 -1602 -1344 -2090 -357 -237 -736 -382 -1208 -463 l-125 -21 -5605 -4
c-4089 -2 -5639 0 -5730 8 -586 53 -1147 278 -1610 647 -121 96 -348 320 -450
444 -399 487 -626 1047 -680 1679 -9 107 -15 11700 -6 11700 2 0 48 -25 102
-56z m12128 -15845 c3 -34 6 -112 6 -173 0 -328 55 -1181 101 -1586 97 -843
265 -1254 667 -1630 330 -310 735 -507 1275 -620 244 -51 810 -213 1248 -356
l196 -64 6 -33 c61 -343 69 -421 74 -718 7 -334 -9 -512 -73 -839 -41 -209
-145 -554 -219 -725 -7 -16 -25 -59 -41 -95 -51 -119 -200 -404 -274 -525
-247 -404 -559 -782 -920 -1114 -175 -160 -185 -169 -320 -277 -386 -308 -777
-558 -1226 -783 -231 -115 -380 -182 -649 -290 -11 -5 -33 -14 -49 -20 -102
-41 -410 -146 -606 -206 -151 -47 -478 -129 -695 -175 -55 -12 -104 -25 -108
-29 -5 -5 -6 -397 -3 -872 3 -475 8 -2191 11 -3814 3 -1622 7 -3077 8 -3232 1
-155 -1 -284 -4 -288 -12 -11 -3591 -12 -3594 -1 -1 6 -7 27 -13 46 -10 34
-12 333 -27 5605 -6 1790 -12 2582 -21 2597 -3 4 -15 8 -26 8 -47 0 -458 106
-668 172 -317 100 -554 185 -780 281 -426 179 -903 437 -1270 685 -129 88
-378 272 -441 326 -19 17 -57 49 -84 71 -191 155 -473 433 -660 650 -436 508
-752 1071 -929 1655 -70 235 -117 474 -147 750 -14 135 -19 503 -8 645 15 203
68 549 86 566 16 14 250 81 352 100 229 43 460 112 649 193 46 20 111 43 145
51 117 30 127 35 127 60 0 19 17 35 83 77 275 176 534 446 677 704 209 378
311 926 375 2029 19 340 34 722 36 965 2 107 4 216 7 243 l4 47 3858 0 3857 0
7 -61z m-11984 -5544 c6 -115 15 -244 20 -285 5 -41 17 -131 25 -200 22 -172
102 -563 146 -705 5 -16 23 -77 40 -135 128 -427 303 -831 548 -1265 92 -163
297 -475 414 -630 63 -83 247 -316 257 -325 3 -3 48 -54 100 -115 167 -194
531 -552 770 -756 254 -217 572 -452 895 -661 96 -63 442 -268 451 -268 2 0
21 -11 42 -24 91 -57 474 -247 717 -356 11 -5 47 -21 80 -36 76 -34 306 -127
410 -165 129 -49 477 -170 518 -181 21 -6 41 -18 46 -27 6 -12 8 -1316 2
-1407 l-1 -21 -92 18 c-51 10 -111 23 -133 28 -22 6 -78 19 -125 30 -309 73
-527 131 -782 207 -27 8 -69 20 -95 28 -336 100 -1008 340 -1218 436 -11 5
-63 27 -115 48 -414 171 -1049 491 -1420 714 -25 15 -52 31 -60 35 -8 3 -105
63 -215 132 -347 217 -551 359 -954 666 -71 53 -312 253 -442 364 -223 194
-528 491 -764 747 -104 113 -357 412 -435 514 -19 25 -37 47 -40 50 -37 31
-362 502 -480 694 -135 220 -302 538 -389 741 -151 348 -307 787 -297 836 3
14 -2 39 -10 55 -12 23 -45 126 -66 202 -3 15 269 193 617 401 603 361 1197
674 1860 978 l160 73 2 -113 c1 -61 7 -206 13 -322z m17286 409 c101 -42 491
-227 717 -340 574 -288 1102 -585 1625 -916 94 -60 172 -113 172 -117 0 -4 -6
-27 -14 -52 -8 -24 -36 -111 -61 -194 -71 -225 -190 -538 -290 -761 -96 -212
-289 -583 -376 -721 -21 -34 -39 -65 -39 -68 0 -5 -140 -227 -198 -315 -332
-495 -662 -892 -1121 -1350 -583 -582 -1184 -1051 -1936 -1513 -374 -229 -887
-504 -1245 -666 -41 -19 -107 -49 -145 -67 -159 -73 -652 -274 -805 -329 -251
-89 -603 -208 -665 -225 -16 -4 -82 -24 -145 -43 -95 -30 -252 -73 -600 -167
-129 -34 -424 -100 -450 -100 -20 0 -20 4 -18 692 l3 691 25 8 c377 113 805
274 1210 455 171 76 619 306 733 375 26 16 49 29 51 29 20 0 520 320 661 422
44 32 91 66 105 76 131 93 446 344 555 441 124 112 160 145 258 241 270 262
417 421 605 655 224 278 241 301 377 510 148 227 160 245 196 310 18 33 45 78
59 100 33 50 210 409 283 575 197 446 352 999 417 1490 17 126 19 189 15 490
-3 190 -7 357 -10 373 -6 31 -1 33 51 11z m-21356 -2981 c95 -223 235 -513
340 -708 128 -238 271 -489 311 -547 11 -15 19 -30 19 -33 0 -3 12 -24 27 -48
15 -23 32 -50 38 -59 247 -416 795 -1143 1130 -1498 34 -36 92 -99 130 -140
181 -199 551 -555 815 -785 300 -262 572 -479 845 -676 72 -52 150 -109 175
-126 134 -97 537 -360 760 -495 279 -170 365 -219 665 -380 113 -61 630 -318
720 -358 28 -13 82 -37 120 -55 39 -17 169 -73 290 -124 121 -51 229 -96 240
-101 19 -9 134 -54 220 -87 22 -8 49 -19 60 -24 11 -4 45 -17 75 -28 30 -11
93 -33 140 -51 218 -80 590 -204 780 -260 41 -12 86 -25 100 -30 14 -5 50 -15
80 -24 30 -8 93 -27 140 -40 297 -87 883 -227 1283 -306 21 -4 41 -11 45 -15
9 -8 10 -3332 1 -3346 -9 -15 -14451 -12 -14460 2 -15 24 -48 483 -60 844 -32
914 68 1911 278 2775 143 588 391 1325 608 1806 8 16 29 66 48 110 41 94 131
284 194 409 100 197 226 441 233 450 4 6 21 35 38 65 87 158 183 318 204 340
13 14 32 43 42 65 37 79 51 103 175 295 69 107 140 211 158 231 18 20 33 39
33 42 0 14 77 136 117 187 45 57 247 330 273 371 16 24 100 131 109 139 4 3
42 50 86 105 71 90 321 393 335 405 3 3 59 66 124 140 65 74 139 156 165 181
25 26 84 91 131 145 47 54 112 124 145 154 113 105 274 277 304 326 10 16 31
38 47 49 48 31 136 104 199 165 112 108 210 193 262 228 29 19 53 38 53 43 0
8 310 274 450 386 41 33 79 57 84 53 4 -5 39 -79 76 -167z m25488 70 c26 -21
81 -67 123 -103 42 -36 134 -114 205 -175 312 -267 809 -744 1124 -1080 172
-183 419 -464 605 -690 56 -68 197 -246 265 -335 36 -47 70 -90 75 -96 6 -6
42 -54 80 -108 39 -53 102 -140 140 -194 115 -158 135 -189 137 -216 1 -15 10
-28 21 -32 22 -7 249 -344 345 -514 14 -25 42 -72 62 -105 149 -245 272 -472
444 -820 183 -370 336 -709 336 -744 0 -6 4 -19 10 -29 11 -21 30 -65 69 -164
17 -43 44 -111 60 -150 71 -176 266 -790 309 -973 6 -22 26 -98 45 -170 19
-71 37 -141 40 -155 3 -14 12 -56 21 -95 49 -208 92 -434 126 -650 11 -71 25
-157 31 -190 19 -113 58 -456 66 -581 l6 -91 -159 -6 c-172 -7 -615 -33 -729
-42 -38 -3 -125 -10 -192 -15 -240 -19 -368 -30 -398 -35 -16 -2 -59 -6 -95
-10 -108 -10 -336 -35 -505 -56 -88 -11 -209 -26 -270 -34 -228 -28 -770 -112
-1030 -159 -1021 -187 -1792 -372 -2720 -655 -241 -73 -749 -240 -945 -311
-63 -23 -146 -53 -185 -66 -38 -13 -79 -28 -90 -33 -11 -5 -47 -19 -80 -31
-68 -24 -180 -67 -210 -80 -11 -5 -85 -35 -165 -66 -149 -58 -481 -194 -536
-219 -16 -8 -99 -44 -183 -80 l-153 -65 -2914 0 -2914 0 0 1669 c0 1582 1
1670 18 1675 9 3 107 23 218 45 110 22 220 44 245 50 24 6 76 17 114 26 159
35 510 121 620 151 593 160 1096 324 1625 529 52 20 104 40 115 45 11 5 72 30
135 55 63 26 133 55 155 64 22 10 101 44 175 76 74 32 171 74 215 95 44 21
112 52 150 70 175 81 562 279 735 374 45 25 84 46 86 46 6 0 326 186 474 277
173 105 226 139 419 265 73 48 139 88 146 88 7 0 26 13 41 29 16 15 61 50 99
76 39 27 193 141 343 254 151 113 291 217 312 231 20 14 48 37 61 52 13 14 76
68 139 120 279 231 494 428 782 718 307 308 523 548 793 880 67 83 329 434
418 562 184 262 413 637 582 953 93 173 285 564 285 580 0 2 14 33 30 68 17
36 30 68 30 71 0 3 11 29 24 58 13 29 38 88 56 131 18 42 35 77 37 77 3 0 26
-17 51 -37z m2922 -10331 c0 -4 -21 -24 -47 -45 -164 -128 -416 -325 -463
-362 -30 -24 -152 -119 -271 -212 -242 -189 -600 -468 -789 -616 -69 -54 -170
-133 -224 -175 -54 -42 -125 -97 -156 -122 -32 -25 -93 -73 -136 -107 -93 -72
-416 -326 -627 -491 -82 -65 -173 -136 -203 -158 -30 -23 -71 -55 -91 -72 -21
-16 -104 -81 -184 -144 -81 -62 -216 -167 -300 -234 -350 -273 -531 -416 -664
-519 -77 -59 -169 -132 -205 -160 -51 -41 -378 -297 -610 -477 -19 -15 -75
-59 -125 -98 -87 -69 -207 -162 -365 -285 -73 -56 -619 -484 -880 -689 -179
-140 -250 -196 -340 -266 -47 -36 -107 -83 -135 -105 -27 -22 -151 -119 -275
-215 -124 -96 -227 -177 -230 -180 -3 -3 -41 -34 -85 -67 -44 -34 -159 -124
-256 -200 -337 -264 -521 -408 -607 -475 -48 -37 -129 -100 -180 -140 -105
-83 -127 -100 -278 -218 -60 -46 -116 -90 -124 -97 -21 -18 -306 -240 -420
-328 -52 -40 -162 -126 -245 -191 -228 -180 -600 -470 -795 -622 -96 -75 -177
-139 -180 -142 -3 -3 -43 -35 -90 -70 -47 -35 -108 -82 -136 -105 -93 -73
-306 -240 -595 -466 -324 -254 -592 -464 -878 -688 -108 -84 -218 -170 -246
-192 -27 -21 -89 -69 -136 -106 -216 -170 -512 -401 -670 -522 -46 -36 -86
-68 -89 -71 -3 -3 -43 -35 -89 -71 -163 -125 -241 -186 -417 -325 -99 -77
-273 -214 -389 -304 -115 -90 -262 -205 -325 -255 -151 -120 -179 -140 -185
-133 -3 3 1 38 10 79 96 467 127 593 245 1009 34 119 145 463 193 600 80 225
243 634 293 733 13 27 37 81 53 120 38 94 102 231 211 447 114 228 123 244
138 253 15 10 42 61 42 81 0 8 25 58 55 111 30 54 55 99 55 100 0 9 184 311
195 320 8 5 23 28 35 50 11 22 25 47 30 55 5 8 26 44 46 80 49 86 251 391 272
410 10 8 35 43 57 78 52 81 316 447 353 490 21 23 38 32 59 32 29 0 31 2 35
49 6 58 24 82 428 555 52 61 97 113 100 116 3 3 48 52 100 110 382 421 907
931 1330 1291 41 35 77 66 80 69 23 24 290 240 545 441 311 245 758 562 1180
835 271 176 761 472 955 577 30 16 60 33 65 37 6 4 80 44 165 90 85 45 183 98
218 117 84 45 557 282 652 326 41 19 120 56 175 82 55 26 165 77 245 112 80
36 165 74 190 85 60 28 297 126 535 223 161 65 552 214 670 255 44 16 172 60
285 100 113 39 239 82 280 95 324 103 740 229 855 260 28 7 86 23 130 35 44
12 121 33 170 46 153 41 665 166 815 199 119 26 152 33 201 44 64 15 475 96
584 116 50 9 124 22 165 30 41 7 120 21 175 30 55 8 123 20 150 25 28 5 113
18 190 30 77 11 167 25 200 30 33 5 114 16 180 25 66 8 163 22 215 29 119 17
130 18 130 8z m1655 -1049 c-45 -230 -142 -629 -206 -848 -11 -38 -28 -95 -36
-125 -9 -30 -26 -86 -38 -125 -13 -38 -34 -106 -48 -150 -66 -208 -211 -600
-277 -750 -5 -11 -39 -92 -75 -180 -37 -88 -89 -207 -116 -264 -27 -57 -49
-105 -49 -107 0 -12 -258 -519 -335 -659 -47 -86 -260 -453 -294 -507 -20 -32
-54 -86 -75 -120 -365 -584 -889 -1279 -1342 -1778 -22 -25 -92 -101 -154
-170 -145 -160 -651 -667 -828 -831 -346 -319 -765 -673 -1082 -914 -58 -44
-110 -85 -117 -91 -14 -13 -252 -188 -386 -284 -457 -326 -1069 -718 -1487
-952 -25 -14 -121 -68 -215 -120 -244 -137 -418 -228 -770 -402 -292 -145
-374 -184 -505 -243 -30 -14 -77 -35 -105 -48 -631 -294 -1613 -664 -2390
-902 -114 -34 -384 -114 -420 -123 -16 -4 -113 -31 -215 -59 -102 -28 -210
-58 -240 -66 -100 -27 -675 -165 -770 -184 -25 -5 -81 -17 -125 -26 -236 -51
-360 -76 -560 -114 -143 -27 -216 -40 -405 -71 -30 -5 -93 -16 -140 -24 -102
-17 -255 -40 -405 -61 -60 -8 -139 -20 -175 -25 -36 -5 -101 -14 -145 -20 -44
-5 -102 -12 -129 -16 -34 -5 -48 -4 -45 4 2 6 105 90 229 187 124 97 252 198
285 224 33 26 87 68 120 92 33 24 62 47 65 50 4 6 68 56 375 295 245 191 408
319 631 494 137 107 296 232 354 277 58 45 175 137 260 203 85 67 199 156 254
199 54 42 124 96 155 120 108 84 557 435 624 488 117 93 199 157 297 233 52
41 124 97 160 125 64 51 560 439 854 668 83 64 158 123 166 130 8 7 44 35 80
62 36 27 74 57 85 67 11 9 76 60 145 113 69 53 132 102 141 109 23 19 478 375
524 410 22 17 42 33 45 36 3 3 34 28 70 55 36 27 76 60 90 72 14 13 31 23 39
23 7 0 30 17 50 38 20 20 127 107 236 193 110 85 264 205 343 267 79 62 148
112 154 112 6 0 27 17 47 38 20 20 75 66 121 102 46 36 106 83 134 105 28 22
119 93 201 157 83 64 195 152 250 195 162 128 556 436 750 587 155 120 317
247 769 601 134 105 196 154 286 224 45 35 90 69 99 77 20 17 428 336 565 442
126 98 175 136 392 306 181 142 221 169 236 160 5 -3 8 -2 7 3 -4 23 7 35 77
89 43 33 103 79 134 104 182 143 409 320 452 354 27 21 60 39 73 40 13 0 21 4
18 9 -2 4 0 7 4 7 5 0 15 11 23 24 8 13 60 59 115 102 55 42 169 132 254 198
278 219 343 266 364 266 11 0 17 3 14 7 -4 3 8 17 25 30 18 13 36 30 41 38 4
8 36 35 70 61 34 26 92 71 130 101 37 29 97 77 135 106 37 30 193 152 347 272
154 120 309 242 345 270 36 28 103 81 150 118 47 36 202 157 345 269 143 112
384 300 535 418 151 118 300 234 330 259 43 35 56 41 58 28 2 -9 -9 -79 -23
-154z m-10615 -148 c0 -2 -30 -23 -67 -45 -38 -23 -102 -64 -143 -90 -41 -27
-113 -72 -160 -101 -151 -93 -549 -358 -770 -512 -483 -338 -963 -709 -1400
-1083 -14 -12 -98 -86 -188 -165 -90 -79 -180 -159 -201 -177 l-38 -32 -10248
0 c-5637 0 -10252 3 -10257 8 -14 14 -184 435 -262 647 -136 371 -268 795
-362 1169 -36 142 -84 358 -84 376 0 7 3902 10 12090 10 6650 0 12090 -2
12090 -5z m-4057 -3299 c-4 -8 -26 -34 -48 -58 -47 -50 -203 -230 -326 -373
-175 -206 -658 -826 -747 -961 -6 -10 -44 -63 -82 -117 -38 -54 -126 -182
-194 -285 -68 -103 -136 -199 -149 -213 l-26 -27 -7910 0 -7910 -1 -37 32
c-49 44 -337 391 -494 597 -36 46 -71 91 -77 100 -45 56 -229 311 -321 444
-205 299 -542 835 -542 865 0 8 2444 11 9435 11 8131 0 9435 -2 9428 -14z
m-2213 -3180 c0 -2 -49 -106 -110 -230 -60 -124 -110 -228 -110 -230 0 -3 -20
-46 -43 -98 -70 -150 -85 -183 -123 -275 -19 -49 -39 -97 -44 -108 -29 -67
-45 -105 -98 -240 -33 -82 -72 -184 -87 -225 -15 -41 -31 -84 -36 -95 -11 -26
-85 -242 -111 -325 -11 -36 -25 -71 -30 -78 -8 -10 -1089 -12 -5387 -10
l-5376 3 -126 77 c-496 304 -1217 824 -1729 1247 -282 233 -660 566 -660 583
0 4 3166 8 7035 8 3869 0 7035 -2 7035 -4z m-1100 -3006 c0 -13 -48 -262 -60
-315 -9 -37 -18 -86 -40 -210 -5 -27 -18 -102 -29 -165 -47 -264 -86 -565
-124 -960 l-22 -225 -150 4 c-82 2 -158 5 -169 6 -12 2 -115 9 -231 15 -115 6
-255 15 -310 20 -55 5 -147 12 -205 16 -58 4 -107 8 -110 9 -3 1 -45 5 -95 9
-49 4 -109 9 -133 12 -24 3 -103 11 -175 19 -289 31 -335 36 -402 45 -38 6
-124 17 -190 26 -252 32 -617 87 -765 114 -30 5 -109 19 -175 30 -66 12 -142
25 -170 31 -27 5 -162 32 -300 59 -289 56 -662 139 -955 211 -218 54 -775 204
-900 243 -41 13 -102 31 -135 41 -335 98 -1171 382 -1390 473 -28 11 -104 42
-170 67 -66 25 -129 50 -140 55 -39 18 -315 130 -319 130 -3 0 -44 18 -91 40
-47 22 -88 40 -90 40 -2 0 -36 15 -77 34 -40 18 -98 44 -128 57 -30 13 -80 36
-110 51 l-55 27 4208 0 c2776 1 4207 -2 4207 -9z"/>
<path d="M15585 45124 c-311 -16 -696 -55 -985 -100 -277 -43 -734 -136 -753
-154 -7 -6 145 -655 155 -665 2 -2 30 3 63 11 418 99 855 165 1370 206 240 19
920 16 1175 -5 459 -39 1030 -129 1345 -212 19 -5 25 17 99 322 43 180 78 333
78 338 -1 12 -70 29 -343 85 -352 72 -714 122 -1114 155 -179 15 -917 28
-1090 19z"/>
<path d="M23015 45084 c-27 -2 -120 -8 -205 -14 -204 -14 -475 -45 -680 -76
-158 -24 -606 -110 -620 -119 -6 -4 142 -660 151 -669 2 -2 65 9 139 25 469
100 961 156 1470 166 601 12 1140 -39 1739 -162 91 -19 166 -33 166 -32 10 19
151 664 147 669 -10 10 -432 93 -622 122 -171 27 -430 57 -655 76 -123 11
-922 22 -1030 14z"/>
<path d="M16505 40603 c-181 -30 -332 -56 -334 -59 -2 -2 6 -54 19 -116 219
-1102 896 -1945 1880 -2338 367 -146 769 -230 1250 -260 353 -22 1034 -9 1350
25 939 102 1611 479 2050 1150 258 394 418 919 437 1428 l6 167 -345 0 -345 0
-6 -142 c-14 -315 -84 -600 -213 -868 -295 -613 -826 -952 -1634 -1044 -286
-33 -908 -46 -1245 -26 -759 45 -1313 251 -1751 651 -393 358 -645 831 -764
1432 -6 31 -14 57 -18 56 -4 0 -155 -25 -337 -56z"/>
</g>
</svg>
